<svg width="20" height="19" viewBox="0 0 20 19" fill="none" xmlns="http://www.w3.org/2000/svg">
<path d="M2.275 18.4065C1.64533 18.4065 1.10875 18.1848 0.66525 17.7413C0.22175 17.2978 0 16.7612 0 16.1315V2.275C0 1.64533 0.22175 1.10875 0.66525 0.66525C1.10875 0.22175 1.64533 0 2.275 0H16.1315C16.7612 0 17.2978 0.22175 17.7413 0.66525C18.1848 1.10875 18.4065 1.64533 18.4065 2.275V4.70325H16.1315V2.275H2.275V16.1315H16.1315V13.7032H18.4065V16.1315C18.4065 16.7612 18.1848 17.2978 17.7413 17.7413C17.2978 18.1848 16.7612 18.4065 16.1315 18.4065H2.275ZM10.2153 14.2032C9.66192 14.2032 9.18825 14.0084 8.79425 13.6188C8.40025 13.2291 8.20325 12.7572 8.20325 12.2032V6.21525C8.20325 5.66192 8.40025 5.18825 8.79425 4.79425C9.18825 4.40025 9.66192 4.20325 10.2153 4.20325H17.4005C17.9545 4.20325 18.4273 4.40025 18.819 4.79425C19.2107 5.18825 19.4065 5.66192 19.4065 6.21525V12.2063C19.4065 12.7554 19.2107 13.2256 18.819 13.6168C18.4273 14.0078 17.9545 14.2032 17.4005 14.2032H10.2153ZM17.4125 12.2032V6.20325H10.2032V12.2032H17.4125ZM13.2032 10.7032C13.6199 10.7032 13.9741 10.5574 14.2657 10.2657C14.5574 9.97408 14.7032 9.61992 14.7032 9.20325C14.7032 8.78658 14.5574 8.43242 14.2657 8.14075C13.9741 7.84908 13.6199 7.70325 13.2032 7.70325C12.7866 7.70325 12.4324 7.84908 12.1407 8.14075C11.8491 8.43242 11.7032 8.78658 11.7032 9.20325C11.7032 9.61992 11.8491 9.97408 12.1407 10.2657C12.4324 10.5574 12.7866 10.7032 13.2032 10.7032Z" fill="#AA89F8"/>
</svg>
