<svg width="24" height="24" viewBox="0 0 24 24" fill="none" xmlns="http://www.w3.org/2000/svg">
<g clip-path="url(#clip0_114_2751)">
<rect width="24" height="24" rx="12" fill="#F3F2F2"/>
<path d="M20 12.3487C20 11.7699 19.9481 11.2133 19.8516 10.679H12.1633V13.8404H16.5566C16.3636 14.8571 15.7848 15.7179 14.9165 16.2968V18.3524H17.5659C19.1095 16.9276 20 14.8348 20 12.3487Z" fill="#4285F4"/>
<path d="M12.1632 20.3265C14.3673 20.3265 16.2152 19.5992 17.5658 18.3525L14.9165 16.2968C14.1892 16.7866 13.2616 17.0835 12.1632 17.0835C10.0408 17.0835 8.23745 15.6512 7.59181 13.7217H4.87567V15.8293C6.2189 18.4935 8.97215 20.3265 12.1632 20.3265Z" fill="#34A853"/>
<path d="M7.59184 13.7143C7.42857 13.2245 7.3321 12.705 7.3321 12.1633C7.3321 11.6215 7.42857 11.102 7.59184 10.6122V8.50464H4.8757C4.31911 9.60297 4 10.8423 4 12.1633C4 13.4842 4.31911 14.7236 4.8757 15.8219L6.99072 14.1744L7.59184 13.7143Z" fill="#FBBC05"/>
<path d="M12.1632 7.25046C13.3655 7.25046 14.4341 7.66605 15.2875 8.46753L17.6252 6.12987C16.2078 4.80891 14.3673 4 12.1632 4C8.97215 4 6.2189 5.83302 4.87567 8.50464L7.59181 10.6122C8.23745 8.68275 10.0408 7.25046 12.1632 7.25046Z" fill="#EA4335"/>
</g>
<defs>
<clipPath id="clip0_114_2751">
<rect width="24" height="24" fill="white"/>
</clipPath>
</defs>
</svg>
