<svg width="120" height="120" viewBox="0 0 120 120" fill="none" xmlns="http://www.w3.org/2000/svg">
<mask id="mask0_114_1699" style="mask-type:alpha" maskUnits="userSpaceOnUse" x="1" y="1" width="117" height="118">
<ellipse cx="59.7284" cy="60" rx="57.7386" ry="58.0203" transform="rotate(2 59.7284 60)" fill="white"/>
</mask>
<g mask="url(#mask0_114_1699)">
<g opacity="0.1" filter="url(#filter0_d_114_1699)">
<ellipse cx="59.8351" cy="60" rx="57.7386" ry="58.0203" transform="rotate(2 59.8351 60)" fill="url(#paint0_radial_114_1699)" shape-rendering="crispEdges"/>
<path d="M61.8771 1.51534C94.0241 2.63794 119.166 29.7348 118.038 62.0327C116.911 94.3305 89.9393 119.608 57.7924 118.485C25.6456 117.362 0.504166 90.2654 1.63191 57.9677C2.75977 25.67 29.7302 0.392946 61.8771 1.51534Z" stroke="url(#paint1_linear_114_1699)" shape-rendering="crispEdges"/>
</g>
<g opacity="0.2" filter="url(#filter1_d_114_1699)">
<circle cx="59.4235" cy="60.0516" r="42.8111" transform="rotate(2 59.4235 60.0516)" fill="url(#paint2_radial_114_1699)" shape-rendering="crispEdges"/>
<circle cx="59.4235" cy="60.0516" r="43.3111" transform="rotate(2 59.4235 60.0516)" stroke="url(#paint3_linear_114_1699)" shape-rendering="crispEdges"/>
</g>
<g filter="url(#filter2_d_114_1699)">
<circle cx="59.8937" cy="60.1652" r="28.1652" fill="url(#paint4_radial_114_1699)" shape-rendering="crispEdges"/>
<circle cx="59.8937" cy="60.1652" r="28.6652" stroke="url(#paint5_linear_114_1699)" shape-rendering="crispEdges"/>
</g>
</g>
<path d="M52.1222 69.2031L50.5249 67.6059L58.0259 60.0916L53.4949 58.9666L58.5824 55.8021L58.1457 49.7966L62.7402 53.6731L68.2957 51.4134L66.0549 56.9819L69.9314 61.5634L63.9259 61.1456L60.7424 66.2331L59.6174 61.7141L52.1222 69.2031ZM52.7102 56.1731L50.5249 53.9879L52.7162 51.7966L54.9014 53.9819L52.7102 56.1731ZM61.6212 60.7754L62.7732 58.8961L64.9907 59.0591L63.5564 57.3679L64.3957 55.3134L62.3412 56.1466L60.6439 54.7374L60.8129 56.9356L58.9277 58.1009L61.0759 58.6271L61.6212 60.7754ZM65.7462 69.2031L63.5549 67.0179L65.7402 64.8324L67.9314 67.0179L65.7462 69.2031Z" fill="white"/>
<defs>
<filter id="filter0_d_114_1699" x="-18.9045" y="-19.0208" width="157.479" height="158.042" filterUnits="userSpaceOnUse" color-interpolation-filters="sRGB">
<feFlood flood-opacity="0" result="BackgroundImageFix"/>
<feColorMatrix in="SourceAlpha" type="matrix" values="0 0 0 0 0 0 0 0 0 0 0 0 0 0 0 0 0 0 127 0" result="hardAlpha"/>
<feOffset/>
<feGaussianBlur stdDeviation="10"/>
<feComposite in2="hardAlpha" operator="out"/>
<feColorMatrix type="matrix" values="0 0 0 0 0.909804 0 0 0 0 0.541176 0 0 0 0 1 0 0 0 0.2 0"/>
<feBlend mode="normal" in2="BackgroundImageFix" result="effect1_dropShadow_114_1699"/>
<feBlend mode="normal" in="SourceGraphic" in2="effect1_dropShadow_114_1699" result="shape"/>
</filter>
<filter id="filter1_d_114_1699" x="-4.38818" y="-3.76001" width="127.623" height="127.623" filterUnits="userSpaceOnUse" color-interpolation-filters="sRGB">
<feFlood flood-opacity="0" result="BackgroundImageFix"/>
<feColorMatrix in="SourceAlpha" type="matrix" values="0 0 0 0 0 0 0 0 0 0 0 0 0 0 0 0 0 0 127 0" result="hardAlpha"/>
<feOffset/>
<feGaussianBlur stdDeviation="10"/>
<feComposite in2="hardAlpha" operator="out"/>
<feColorMatrix type="matrix" values="0 0 0 0 0.909804 0 0 0 0 0.541176 0 0 0 0 1 0 0 0 0.2 0"/>
<feBlend mode="normal" in2="BackgroundImageFix" result="effect1_dropShadow_114_1699"/>
<feBlend mode="normal" in="SourceGraphic" in2="effect1_dropShadow_114_1699" result="shape"/>
</filter>
<filter id="filter2_d_114_1699" x="10.7285" y="11" width="98.3303" height="98.3303" filterUnits="userSpaceOnUse" color-interpolation-filters="sRGB">
<feFlood flood-opacity="0" result="BackgroundImageFix"/>
<feColorMatrix in="SourceAlpha" type="matrix" values="0 0 0 0 0 0 0 0 0 0 0 0 0 0 0 0 0 0 127 0" result="hardAlpha"/>
<feOffset/>
<feGaussianBlur stdDeviation="10"/>
<feComposite in2="hardAlpha" operator="out"/>
<feColorMatrix type="matrix" values="0 0 0 0 0.909804 0 0 0 0 0.541176 0 0 0 0 1 0 0 0 0.2 0"/>
<feBlend mode="normal" in2="BackgroundImageFix" result="effect1_dropShadow_114_1699"/>
<feBlend mode="normal" in="SourceGraphic" in2="effect1_dropShadow_114_1699" result="shape"/>
</filter>
<radialGradient id="paint0_radial_114_1699" cx="0" cy="0" r="1" gradientTransform="matrix(108.763 41.7746 -2.581 109.294 4.78196 59.2264)" gradientUnits="userSpaceOnUse">
<stop stop-color="#A781FF"/>
<stop offset="1" stop-color="#EB8EFF"/>
</radialGradient>
<linearGradient id="paint1_linear_114_1699" x1="10.8285" y1="34.2923" x2="121.789" y2="43.3807" gradientUnits="userSpaceOnUse">
<stop stop-color="white" stop-opacity="0.4"/>
<stop offset="1" stop-color="#FF79FD"/>
</linearGradient>
<radialGradient id="paint2_radial_114_1699" cx="0" cy="0" r="1" gradientTransform="matrix(80.6442 30.824 -1.91372 80.6442 18.6036 59.4807)" gradientUnits="userSpaceOnUse">
<stop stop-color="#A781FF"/>
<stop offset="1" stop-color="#EB8EFF"/>
</radialGradient>
<linearGradient id="paint3_linear_114_1699" x1="22.4438" y1="42.3563" x2="104.9" y2="46.2384" gradientUnits="userSpaceOnUse">
<stop stop-color="white" stop-opacity="0.4"/>
<stop offset="1" stop-color="#FF79FD"/>
</linearGradient>
<radialGradient id="paint4_radial_114_1699" cx="0" cy="0" r="1" gradientTransform="matrix(53.0554 20.2789 -1.25903 53.0554 33.0385 59.7897)" gradientUnits="userSpaceOnUse">
<stop stop-color="#A781FF"/>
<stop offset="1" stop-color="#EB8EFF"/>
</radialGradient>
<linearGradient id="paint5_linear_114_1699" x1="35.565" y1="48.5236" x2="89.8128" y2="51.0776" gradientUnits="userSpaceOnUse">
<stop stop-color="white" stop-opacity="0.4"/>
<stop offset="1" stop-color="#FF79FD"/>
</linearGradient>
</defs>
</svg>
