<svg width="120" height="120" viewBox="0 0 120 120" fill="none" xmlns="http://www.w3.org/2000/svg">
<mask id="mask0_114_1721" style="mask-type:alpha" maskUnits="userSpaceOnUse" x="1" y="1" width="117" height="118">
<ellipse cx="59.7284" cy="60" rx="57.7386" ry="58.0203" transform="rotate(2 59.7284 60)" fill="white"/>
</mask>
<g mask="url(#mask0_114_1721)">
<g opacity="0.1" filter="url(#filter0_d_114_1721)">
<ellipse cx="59.8348" cy="60" rx="57.7386" ry="58.0203" transform="rotate(2 59.8348 60)" fill="url(#paint0_radial_114_1721)" shape-rendering="crispEdges"/>
<path d="M61.8768 1.51534C94.0238 2.63794 119.166 29.7348 118.038 62.0327C116.91 94.3305 89.9391 119.608 57.7921 118.485C25.6454 117.362 0.503921 90.2654 1.63167 57.9677C2.75953 25.67 29.73 0.392946 61.8768 1.51534Z" stroke="url(#paint1_linear_114_1721)" shape-rendering="crispEdges"/>
</g>
<g opacity="0.2" filter="url(#filter1_d_114_1721)">
<circle cx="59.4233" cy="60.0516" r="42.8111" transform="rotate(2 59.4233 60.0516)" fill="url(#paint2_radial_114_1721)" shape-rendering="crispEdges"/>
<circle cx="59.4233" cy="60.0516" r="43.3111" transform="rotate(2 59.4233 60.0516)" stroke="url(#paint3_linear_114_1721)" shape-rendering="crispEdges"/>
</g>
<g filter="url(#filter2_d_114_1721)">
<circle cx="59.8168" cy="60.2736" r="28.1652" fill="url(#paint4_radial_114_1721)" shape-rendering="crispEdges"/>
<circle cx="59.8168" cy="60.2736" r="28.6652" stroke="url(#paint5_linear_114_1721)" shape-rendering="crispEdges"/>
</g>
</g>
<path d="M50.5249 57.2391V51.1254H52.6147V54.1646C53.4638 53.1273 54.502 52.3066 55.7292 51.7026C56.9563 51.0986 58.2893 50.7966 59.7282 50.7966C61.7945 50.7966 63.6284 51.3998 65.2299 52.6061C66.8312 53.8125 67.9223 55.3568 68.5032 57.2391H66.0712C65.5363 55.9991 64.7056 54.9945 63.5789 54.2254C62.4522 53.4562 61.1687 53.0716 59.7282 53.0716C58.7622 53.0716 57.8544 53.2546 57.0049 53.6206C56.1552 53.9865 55.4157 54.496 54.7864 55.1494H56.6444V57.2391H50.5249ZM53.6264 66.0716H65.8299L61.9782 60.8804L58.9782 64.8804L56.7282 61.8804L53.6264 66.0716ZM52.7999 70.2031C52.1702 70.2031 51.6337 69.9814 51.1902 69.5379C50.7467 69.0944 50.5249 68.5578 50.5249 67.9281V60.0716H52.7999V67.9281H66.6564V60.0716H68.9314V67.9281C68.9314 68.5578 68.7097 69.0944 68.2662 69.5379C67.8227 69.9814 67.2861 70.2031 66.6564 70.2031H52.7999Z" fill="white"/>
<defs>
<filter id="filter0_d_114_1721" x="-18.9048" y="-19.0208" width="157.479" height="158.042" filterUnits="userSpaceOnUse" color-interpolation-filters="sRGB">
<feFlood flood-opacity="0" result="BackgroundImageFix"/>
<feColorMatrix in="SourceAlpha" type="matrix" values="0 0 0 0 0 0 0 0 0 0 0 0 0 0 0 0 0 0 127 0" result="hardAlpha"/>
<feOffset/>
<feGaussianBlur stdDeviation="10"/>
<feComposite in2="hardAlpha" operator="out"/>
<feColorMatrix type="matrix" values="0 0 0 0 0.909804 0 0 0 0 0.541176 0 0 0 0 1 0 0 0 0.2 0"/>
<feBlend mode="normal" in2="BackgroundImageFix" result="effect1_dropShadow_114_1721"/>
<feBlend mode="normal" in="SourceGraphic" in2="effect1_dropShadow_114_1721" result="shape"/>
</filter>
<filter id="filter1_d_114_1721" x="-4.38843" y="-3.76001" width="127.623" height="127.623" filterUnits="userSpaceOnUse" color-interpolation-filters="sRGB">
<feFlood flood-opacity="0" result="BackgroundImageFix"/>
<feColorMatrix in="SourceAlpha" type="matrix" values="0 0 0 0 0 0 0 0 0 0 0 0 0 0 0 0 0 0 127 0" result="hardAlpha"/>
<feOffset/>
<feGaussianBlur stdDeviation="10"/>
<feComposite in2="hardAlpha" operator="out"/>
<feColorMatrix type="matrix" values="0 0 0 0 0.909804 0 0 0 0 0.541176 0 0 0 0 1 0 0 0 0.2 0"/>
<feBlend mode="normal" in2="BackgroundImageFix" result="effect1_dropShadow_114_1721"/>
<feBlend mode="normal" in="SourceGraphic" in2="effect1_dropShadow_114_1721" result="shape"/>
</filter>
<filter id="filter2_d_114_1721" x="10.6516" y="11.1084" width="98.3303" height="98.3303" filterUnits="userSpaceOnUse" color-interpolation-filters="sRGB">
<feFlood flood-opacity="0" result="BackgroundImageFix"/>
<feColorMatrix in="SourceAlpha" type="matrix" values="0 0 0 0 0 0 0 0 0 0 0 0 0 0 0 0 0 0 127 0" result="hardAlpha"/>
<feOffset/>
<feGaussianBlur stdDeviation="10"/>
<feComposite in2="hardAlpha" operator="out"/>
<feColorMatrix type="matrix" values="0 0 0 0 0.909804 0 0 0 0 0.541176 0 0 0 0 1 0 0 0 0.2 0"/>
<feBlend mode="normal" in2="BackgroundImageFix" result="effect1_dropShadow_114_1721"/>
<feBlend mode="normal" in="SourceGraphic" in2="effect1_dropShadow_114_1721" result="shape"/>
</filter>
<radialGradient id="paint0_radial_114_1721" cx="0" cy="0" r="1" gradientTransform="matrix(108.763 41.7746 -2.581 109.294 4.78172 59.2264)" gradientUnits="userSpaceOnUse">
<stop stop-color="#A781FF"/>
<stop offset="1" stop-color="#EB8EFF"/>
</radialGradient>
<linearGradient id="paint1_linear_114_1721" x1="10.8283" y1="34.2923" x2="121.789" y2="43.3807" gradientUnits="userSpaceOnUse">
<stop stop-color="white" stop-opacity="0.4"/>
<stop offset="1" stop-color="#FF79FD"/>
</linearGradient>
<radialGradient id="paint2_radial_114_1721" cx="0" cy="0" r="1" gradientTransform="matrix(80.6442 30.824 -1.91372 80.6442 18.6034 59.4807)" gradientUnits="userSpaceOnUse">
<stop stop-color="#A781FF"/>
<stop offset="1" stop-color="#EB8EFF"/>
</radialGradient>
<linearGradient id="paint3_linear_114_1721" x1="22.4436" y1="42.3563" x2="104.9" y2="46.2384" gradientUnits="userSpaceOnUse">
<stop stop-color="white" stop-opacity="0.4"/>
<stop offset="1" stop-color="#FF79FD"/>
</linearGradient>
<radialGradient id="paint4_radial_114_1721" cx="0" cy="0" r="1" gradientTransform="matrix(53.0554 20.2789 -1.25903 53.0554 32.9616 59.8981)" gradientUnits="userSpaceOnUse">
<stop stop-color="#A781FF"/>
<stop offset="1" stop-color="#EB8EFF"/>
</radialGradient>
<linearGradient id="paint5_linear_114_1721" x1="35.4881" y1="48.632" x2="89.7359" y2="51.186" gradientUnits="userSpaceOnUse">
<stop stop-color="white" stop-opacity="0.4"/>
<stop offset="1" stop-color="#FF79FD"/>
</linearGradient>
</defs>
</svg>
