<svg width="24" height="24" viewBox="0 0 24 24" fill="none" xmlns="http://www.w3.org/2000/svg">
<g clip-path="url(#clip0_167_647)">
<path d="M6.9997 14.0897C6.42587 14.0897 5.93412 13.8849 5.52445 13.4752C5.11479 13.0655 4.90995 12.5738 4.90995 11.9999C4.90995 11.4261 5.11479 10.9344 5.52445 10.5247C5.93412 10.115 6.42587 9.9102 6.9997 9.9102C7.57354 9.9102 8.06529 10.115 8.47495 10.5247C8.88462 10.9344 9.08945 11.4261 9.08945 11.9999C9.08945 12.5738 8.88462 13.0655 8.47495 13.4752C8.06529 13.8849 7.57354 14.0897 6.9997 14.0897ZM6.9997 18.1852C5.2852 18.1852 3.8257 17.5829 2.6212 16.3784C1.4167 15.1739 0.814453 13.7144 0.814453 11.9999C0.814453 10.2854 1.4167 8.82595 2.6212 7.62145C3.8257 6.41695 5.2852 5.8147 6.9997 5.8147C8.1602 5.8147 9.20954 6.10161 10.1477 6.67545C11.086 7.24945 11.8219 7.99436 12.3552 8.9102H21.1252L24.221 11.9999L19.5955 16.6254L17.5895 15.1134L15.5955 16.6074L13.4405 15.0897H12.3552C11.8259 16.0015 11.091 16.7454 10.1507 17.3214C9.21054 17.8973 8.1602 18.1852 6.9997 18.1852ZM6.9997 15.9999C7.94904 15.9999 8.77987 15.7106 9.4922 15.1319C10.2044 14.5534 10.6712 13.8129 10.8927 12.9102H14.1192L15.5395 13.9114L17.5895 12.3864L19.3585 13.7494L21.1377 12.0239L20.2095 11.0897H10.8867C10.6772 10.199 10.2134 9.46145 9.4952 8.87695C8.77687 8.29228 7.94504 7.99995 6.9997 7.99995C5.8997 7.99995 4.95804 8.39161 4.1747 9.17495C3.39137 9.95828 2.9997 10.8999 2.9997 11.9999C2.9997 13.0999 3.39137 14.0416 4.1747 14.8249C4.95804 15.6083 5.8997 15.9999 6.9997 15.9999Z" fill="#AA89F8"/>
</g>
<defs>
<clipPath id="clip0_167_647">
<rect width="24" height="24" fill="white"/>
</clipPath>
</defs>
</svg>
