<svg width="82" height="20" viewBox="0 0 82 20" fill="none" xmlns="http://www.w3.org/2000/svg">
<g clip-path="url(#clip0_114_7388)">
<path d="M41.7453 5.9483H39.0243L37.0988 9.3398H36.1075L36.076 2H33.5V15.2559H36.076L36.1075 11.6177H37.0923L39.6493 15.2559H42.503L39.1695 10.4345L41.7453 5.9483Z" fill="white"/>
<path d="M61.2413 10.314C60.7178 9.97463 60.1508 9.70851 59.5556 9.52311L58.9873 9.30798L58.8336 9.25016C58.4806 9.11753 58.1098 8.97816 58.0971 8.61828C58.0938 8.51146 58.1176 8.40553 58.1661 8.31036C58.2148 8.21521 58.2866 8.13393 58.3751 8.07413C58.5616 7.94528 58.7801 7.87081 59.0063 7.85901C59.4996 7.82488 59.9886 7.97098 60.3826 8.27028L60.4521 8.31458L61.8283 6.72641L61.7591 6.66946C61.5876 6.51636 61.4016 6.38071 61.2033 6.26451C60.8483 6.06096 60.4623 5.91771 60.0606 5.84056C59.4821 5.71721 58.8841 5.71721 58.3056 5.84056C57.7461 5.91476 57.2156 6.13273 56.7651 6.47331C56.4771 6.69918 56.2361 6.97973 56.0563 7.29893C55.8766 7.61813 55.7613 7.96968 55.7171 8.33356C55.6381 8.99021 55.8046 9.65288 56.1841 10.1938C56.6886 10.7536 57.3481 11.1501 58.0783 11.3328L58.1918 11.3707L58.4508 11.4593C59.3851 11.7757 59.6503 11.9022 59.8018 12.0921C59.8723 12.1875 59.9118 12.3023 59.9153 12.4211C59.9153 12.8703 59.3661 13.0538 58.9936 13.1677C58.7333 13.2167 58.4656 13.2117 58.2071 13.1529C57.9486 13.0942 57.7048 12.9829 57.4911 12.826C57.1451 12.5941 56.8488 12.295 56.6198 11.9465C56.5816 11.9864 56.4551 12.1132 56.2896 12.2789C55.8251 12.7441 55.0543 13.516 55.0731 13.5347L55.1173 13.598C55.8048 14.4606 56.7681 15.0595 57.8446 15.2937C58.0906 15.3414 58.3396 15.3731 58.5896 15.3886H58.8486C59.6988 15.4065 60.5321 15.1467 61.2223 14.6483C61.6891 14.3174 62.0473 13.8549 62.2513 13.3196C62.3756 12.9602 62.4196 12.5779 62.3803 12.1996C62.3411 11.8214 62.2193 11.4563 62.0241 11.1303C61.8246 10.8051 61.5576 10.5268 61.2413 10.314Z" fill="white"/>
<path d="M67.8834 9.52325C68.4767 9.70865 69.0417 9.97477 69.5627 10.3142C69.8734 10.5269 70.1359 10.8028 70.3329 11.1241C70.5282 11.4501 70.6499 11.8152 70.6892 12.1934C70.7284 12.5717 70.6844 12.954 70.5602 13.3133C70.3562 13.8487 69.9979 14.3112 69.5312 14.6421C68.8409 15.1404 68.0079 15.4003 67.1574 15.3824H66.8984C66.6484 15.3673 66.3994 15.3356 66.1534 15.2875C65.0769 15.0533 64.1137 14.4544 63.4262 13.5918L63.3757 13.5285C63.3632 13.5119 63.9722 12.8998 64.4322 12.4373C64.6739 12.1943 64.8747 11.9926 64.9224 11.9403C65.1547 12.286 65.4504 12.5845 65.7937 12.8198C66.0087 12.9769 66.2534 13.0882 66.5129 13.1469C66.7724 13.2057 67.0412 13.2107 67.3027 13.1615C67.6749 13.0476 68.2179 12.8641 68.2179 12.4149C68.2214 12.296 68.1834 12.1797 68.1107 12.0858C67.9592 11.896 67.6939 11.7695 66.7532 11.4531L66.4944 11.3645L66.3872 11.3265C65.6569 11.1439 64.9974 10.7474 64.4932 10.1876C64.1099 9.64825 63.9432 8.98422 64.0259 8.32735C64.0722 7.96355 64.1897 7.6125 64.3717 7.29432C64.5537 6.97617 64.7967 6.6972 65.0864 6.47342C65.5382 6.13485 66.0682 5.91707 66.6269 5.84067C67.2077 5.71717 67.8077 5.71717 68.3884 5.84067C68.7882 5.91805 69.1722 6.06132 69.5249 6.26462C69.7259 6.37922 69.9144 6.51497 70.0867 6.66957L70.1499 6.72652L68.7737 8.3147L68.7104 8.2704C68.3159 7.97215 67.8272 7.82615 67.3342 7.85912C67.1079 7.87095 66.8894 7.9454 66.7027 8.07425C66.6164 8.13645 66.5457 8.21805 66.4962 8.31255C66.4469 8.40705 66.4204 8.51177 66.4187 8.61842C66.4377 8.97907 66.8037 9.11827 67.1637 9.25115L67.3089 9.3081L67.8834 9.52325Z" fill="white"/>
<path fill-rule="evenodd" clip-rule="evenodd" d="M50.2053 5.94845V6.8596H50.0916C49.3866 6.15205 48.4313 5.75187 47.4336 5.74597C46.8221 5.73385 46.2146 5.85097 45.6511 6.08972C45.0876 6.3285 44.5808 6.6835 44.1633 7.13167C43.3213 8.0766 42.8698 9.3073 42.9006 10.5738C42.8678 11.8615 43.3186 13.1146 44.1633 14.0855C44.5708 14.5339 45.0698 14.8892 45.6266 15.1273C46.1831 15.3653 46.7843 15.4804 47.3893 15.4649C48.3883 15.4461 49.3491 15.0766 50.1041 14.4208H50.2053V15.2371H52.8821V5.94845H50.2053ZM50.3378 10.6244C50.3646 11.3729 50.1151 12.1051 49.6371 12.6808C49.4078 12.938 49.1251 13.1416 48.8086 13.2772C48.4923 13.4128 48.1501 13.477 47.8061 13.4654C47.4726 13.471 47.1421 13.4011 46.8393 13.2609C46.5366 13.1206 46.2691 12.9137 46.0573 12.6555C45.5848 12.0679 45.3423 11.3277 45.3753 10.5738C45.3541 9.8425 45.6011 9.12877 46.0698 8.568C46.2858 8.3137 46.5551 8.11035 46.8583 7.97252C47.1618 7.83467 47.4918 7.76577 47.8251 7.77075C48.1666 7.76007 48.5063 7.8255 48.8196 7.96225C49.1331 8.09902 49.4121 8.30375 49.6371 8.56167C50.1151 9.1399 50.3643 9.87397 50.3378 10.6244Z" fill="white"/>
<path fill-rule="evenodd" clip-rule="evenodd" d="M79.3228 6.8595V5.94835H81.9998V15.237H79.3228V14.4208H79.2218C78.4668 15.0765 77.506 15.446 76.507 15.4648C75.902 15.4803 75.3008 15.3652 74.744 15.1272C74.1875 14.8892 73.6885 14.5339 73.281 14.0854C72.4363 13.1146 71.9855 11.8614 72.0183 10.5737C71.9875 9.30723 72.439 8.07653 73.281 7.13158C73.7 6.68388 74.2083 6.32923 74.7728 6.09055C75.337 5.85188 75.945 5.73445 76.5575 5.74588C77.5533 5.75343 78.5058 6.15348 79.2093 6.8595H79.3228ZM78.7548 12.6807C79.2355 12.1065 79.4853 11.3733 79.4555 10.6243C79.485 9.87345 79.2353 9.1383 78.7548 8.56158C78.5298 8.30365 78.2508 8.09893 77.9373 7.96218C77.624 7.8254 77.2843 7.76 76.9428 7.77065C76.6095 7.7657 76.2795 7.8346 75.976 7.97243C75.6728 8.11025 75.4035 8.3136 75.1875 8.5679C74.7188 9.12868 74.4718 9.84243 74.493 10.5737C74.46 11.3277 74.7025 12.0678 75.175 12.6554C75.3868 12.9136 75.654 13.1206 75.957 13.2608C76.2598 13.401 76.5903 13.471 76.9238 13.4653C77.2678 13.477 77.61 13.4127 77.9263 13.2771C78.2428 13.1415 78.5255 12.9379 78.7548 12.6807Z" fill="white"/>
<path fill-rule="evenodd" clip-rule="evenodd" d="M18 20C23.5228 20 28 15.5229 28 10C28 4.47715 23.5228 0 18 0C13.5707 0 9.8141 2.8796 8.5 6.86882V3H0L4.75 18H8.5V13.1312C9.8141 17.1204 13.5707 20 18 20ZM18 13.75C20.0711 13.75 21.75 12.0711 21.75 10C21.75 7.92893 20.0711 6.25 18 6.25C15.9289 6.25 14.25 7.92893 14.25 10C14.25 12.0711 15.9289 13.75 18 13.75Z" fill="#0070F0"/>
</g>
<defs>
<clipPath id="clip0_114_7388">
<rect width="82" height="20" fill="white"/>
</clipPath>
</defs>
</svg>
