<svg width="40" height="20" viewBox="0 0 40 20" fill="none" xmlns="http://www.w3.org/2000/svg">
<g clip-path="url(#clip0_114_7395)">
<path d="M34.5884 5.70883V10.5985H32.8351V7.1685H31.1469V10.5985H29.3936V5.7085H34.5884V5.70883Z" fill="white"/>
<path fill-rule="evenodd" clip-rule="evenodd" d="M25.7924 10.7736C27.3619 10.7736 28.5274 9.81525 28.5274 8.36242C28.5274 6.95625 27.6675 6.04325 26.2303 6.04325C25.5671 6.04325 25.0198 6.27575 24.6076 6.67692C24.706 5.84775 25.4101 5.24242 26.1853 5.24242C26.3642 5.24242 27.7112 5.23959 27.7112 5.23959L28.4729 3.78809C28.4729 3.78809 26.7818 3.82642 25.9957 3.82642C24.1996 3.85759 22.9863 5.48342 22.9863 7.45809C22.9863 9.75859 24.1696 10.7736 25.7924 10.7736ZM25.8019 7.32892C26.3847 7.32892 26.7887 7.71025 26.7887 8.36225C26.7887 8.94909 26.4297 9.43259 25.8019 9.43392C25.2014 9.43392 24.7974 8.98592 24.7974 8.37225C24.7974 7.72009 25.2014 7.32892 25.8019 7.32892Z" fill="white"/>
<path d="M21.5596 8.96165C21.5596 8.96165 21.1455 9.19932 20.5271 9.24432C19.8161 9.26532 19.1827 8.81816 19.1827 8.02365C19.1827 7.24865 19.7417 6.80449 20.5092 6.80449C20.9798 6.80449 21.6024 7.12932 21.6024 7.12932C21.6024 7.12932 22.058 6.29682 22.294 5.88049C21.8618 5.55432 21.2863 5.37549 20.6168 5.37549C18.9273 5.37549 17.6187 6.47249 17.6187 8.01382C17.6187 9.57482 18.8486 10.6463 20.6168 10.614C21.111 10.5957 21.7929 10.4228 22.2084 10.157L21.5596 8.96165Z" fill="white"/>
<path d="M0 4.35352L2.43213 8.68268V11.3233L0.00284519 15.644L0 4.35352Z" fill="#5B57A2"/>
<path d="M9.33838 7.10725L11.6174 5.71625L16.2815 5.71191L9.33838 9.94758V7.10725Z" fill="#D90751"/>
<path d="M9.32533 4.32783L9.33822 10.0595L6.90039 8.56783V0L9.32533 4.32783Z" fill="#FAB718"/>
<path d="M16.2813 5.71183L11.617 5.71617L9.32533 4.32783L6.90039 0L16.2813 5.71183Z" fill="#ED6F26"/>
<path d="M9.33822 15.668V12.8872L6.90039 11.4238L6.90173 20.0002L9.33822 15.668Z" fill="#63B22F"/>
<path d="M11.6117 14.2897L2.43197 8.68268L0 4.35352L16.2716 14.284L11.6117 14.2897Z" fill="#1487C9"/>
<path d="M6.90186 19.9999L9.33801 15.6677L11.6113 14.2894L16.2712 14.2837L6.90186 19.9999Z" fill="#017F36"/>
<path d="M0.00292969 15.6439L6.92059 11.4239L4.5949 10.0029L2.43222 11.3233L0.00292969 15.6439Z" fill="#984995"/>
<path d="M19.1828 13.8892C19.1293 13.9572 19.0588 14.0086 18.9743 14.0432C18.8876 14.0784 18.7948 14.0963 18.7011 14.0959C18.608 14.0971 18.5154 14.0817 18.4278 14.0502C18.3492 14.0218 18.2772 13.9774 18.2166 13.9199C18.1568 13.8623 18.1098 13.7928 18.0787 13.7159C18.0451 13.6317 18.0283 13.5417 18.0293 13.4511C18.0293 13.3611 18.0449 13.2777 18.0772 13.1987C18.1082 13.1196 18.1532 13.0517 18.2096 12.9947C18.266 12.9366 18.3336 12.8922 18.4096 12.8576C18.4871 12.8242 18.5716 12.8062 18.6645 12.8062C18.7646 12.8062 18.8575 12.8187 18.942 12.8436C19.0265 12.8686 19.0983 12.9102 19.1574 12.9686L19.0546 13.1419C19.0049 13.097 18.9464 13.063 18.8827 13.0419C18.8222 13.0225 18.759 13.0127 18.6954 13.0129C18.6392 13.0129 18.5857 13.0239 18.5336 13.0447C18.4823 13.0653 18.4354 13.0955 18.3955 13.1336C18.3547 13.1728 18.3226 13.22 18.3011 13.2722C18.2772 13.3262 18.266 13.3859 18.266 13.4524C18.266 13.5204 18.2785 13.5814 18.3025 13.6341C18.3266 13.6882 18.3589 13.7341 18.3997 13.7727C18.4406 13.8117 18.4884 13.8407 18.5433 13.8602C18.5984 13.8811 18.6561 13.8907 18.718 13.8907C18.794 13.8907 18.8631 13.8754 18.9222 13.8462C18.9808 13.8181 19.0334 13.779 19.0772 13.7312L19.1828 13.8892ZM19.4729 14.0667V12.8326H19.6954V13.7521L20.4193 12.8326H20.6419V14.0669H20.4193V13.1474L19.6954 14.0669L19.4729 14.0667ZM22.1164 13.8892C22.0616 13.9578 21.9898 14.0109 21.908 14.0432C21.8212 14.0784 21.7284 14.0963 21.6347 14.0959C21.5416 14.0971 21.4491 14.0817 21.3616 14.0502C21.2828 14.0218 21.2109 13.9774 21.1502 13.9199C21.0903 13.8623 21.0433 13.7928 21.0123 13.7159C20.9786 13.6317 20.9619 13.5417 20.9629 13.4511C20.9629 13.3611 20.9785 13.2777 21.0108 13.1987C21.0419 13.1196 21.0869 13.0517 21.1431 12.9947C21.1996 12.9366 21.2672 12.8922 21.3431 12.8576C21.4234 12.8224 21.5104 12.8049 21.598 12.8062C21.6981 12.8062 21.791 12.8187 21.8755 12.8436C21.9601 12.8686 22.0319 12.9102 22.0911 12.9686L21.9882 13.1419C21.9386 13.097 21.8801 13.0629 21.8165 13.0419C21.7559 13.0225 21.6927 13.0127 21.6292 13.0129C21.5173 13.0133 21.4098 13.0565 21.3291 13.1336C21.2887 13.173 21.2566 13.2202 21.2347 13.2722C21.2108 13.3262 21.1995 13.3859 21.1995 13.4524C21.1995 13.5204 21.2123 13.5814 21.2362 13.6341C21.2601 13.6882 21.2924 13.7341 21.3333 13.7727C21.3741 13.8117 21.4221 13.8407 21.477 13.8602C21.5319 13.8796 21.5897 13.8907 21.6516 13.8907C21.7277 13.8907 21.7954 13.8754 21.8558 13.8462C21.9143 13.8181 21.9669 13.779 22.0108 13.7312L22.1164 13.8892ZM22.2305 12.8326H23.3726V13.0517H22.9135V14.0667H22.6909V13.0517H22.2319V12.8326H22.2305Z" fill="white"/>
<path fill-rule="evenodd" clip-rule="evenodd" d="M24.4122 14.0547C24.4967 14.0284 24.5685 13.988 24.6304 13.9327L24.5628 13.7607C24.522 13.7969 24.4671 13.8274 24.401 13.8524C24.3347 13.8774 24.26 13.8897 24.1784 13.8897C24.0558 13.8897 23.9544 13.8579 23.8741 13.7927C23.7939 13.7274 23.7502 13.636 23.7404 13.5194H24.7037C24.7136 13.4764 24.7178 13.4279 24.7178 13.371C24.7178 13.2864 24.7022 13.2102 24.6712 13.1409C24.6424 13.0735 24.6003 13.0127 24.5474 12.9619C24.4938 12.9115 24.4305 12.8724 24.3615 12.8469C24.2892 12.8189 24.2122 12.8048 24.1347 12.8052C24.0304 12.8052 23.9389 12.8232 23.8587 12.8565C23.7829 12.8883 23.7144 12.935 23.6572 12.9939C23.6017 13.0524 23.5591 13.1218 23.532 13.1977C23.5022 13.2785 23.4874 13.364 23.4883 13.45C23.4883 13.5472 23.5052 13.6359 23.5362 13.715C23.5663 13.7917 23.6124 13.8612 23.6714 13.9189C23.7292 13.9755 23.7994 14.0187 23.8826 14.0492C23.9717 14.0806 24.0656 14.0961 24.1601 14.0949C24.2457 14.0943 24.3307 14.0807 24.4122 14.0547ZM23.8488 13.1047C23.9178 13.0424 24.0093 13.0119 24.1248 13.0119C24.2333 13.0119 24.3206 13.041 24.3841 13.0994C24.4475 13.1575 24.4811 13.238 24.4868 13.3405H23.7263C23.7371 13.2498 23.7806 13.1658 23.8488 13.1047Z" fill="white"/>
<path d="M25.0205 12.833H25.2234L25.705 13.4447L26.1613 12.833H26.3584V14.0673H26.136V13.1673L25.7022 13.74H25.6936L25.2431 13.1672V14.0672H25.0205V12.833Z" fill="white"/>
<path fill-rule="evenodd" clip-rule="evenodd" d="M26.964 12.837C26.8965 12.8546 26.8319 12.8821 26.7726 12.9187L26.8316 13.0937C26.8824 13.0687 26.9331 13.0478 26.9838 13.0298C27.0345 13.0117 27.0993 13.0033 27.1767 13.0033C27.2387 13.0033 27.288 13.0132 27.326 13.0325C27.364 13.0505 27.3921 13.0783 27.4119 13.1117C27.4316 13.145 27.4444 13.1865 27.4514 13.235C27.4584 13.2835 27.4613 13.3362 27.4613 13.3932C27.4157 13.3615 27.3638 13.3402 27.3091 13.3307C27.2563 13.3202 27.2025 13.3146 27.1486 13.314C27.0823 13.314 27.0204 13.3238 26.9612 13.3403C26.9021 13.357 26.8514 13.382 26.8105 13.4153C26.7689 13.4486 26.7352 13.4907 26.712 13.5387C26.6872 13.5911 26.6746 13.6485 26.6753 13.7065C26.6753 13.8272 26.7106 13.9215 26.7809 13.9882C26.8514 14.0547 26.9443 14.0878 27.0598 14.0878C27.164 14.0878 27.2472 14.0698 27.3105 14.0338C27.3739 13.9977 27.4246 13.9562 27.4613 13.909V14.0685H27.6696V13.3113C27.6696 13.1503 27.6345 13.0257 27.5627 12.9382C27.4922 12.8508 27.3669 12.8065 27.1895 12.8065C27.1105 12.8065 27.0358 12.8175 26.964 12.837ZM27.3361 13.837C27.2854 13.873 27.2191 13.8895 27.1374 13.8895C27.0656 13.8895 27.0092 13.8715 26.9699 13.8368C26.9304 13.8008 26.9106 13.7537 26.9106 13.6953C26.9106 13.6608 26.9177 13.6317 26.9332 13.6053C26.9488 13.579 26.9699 13.5582 26.9938 13.5415C27.02 13.5241 27.0491 13.5114 27.0797 13.504C27.1121 13.4957 27.1444 13.4915 27.1782 13.4915C27.2882 13.4915 27.3824 13.5178 27.4599 13.5733V13.73C27.4234 13.7707 27.3818 13.8068 27.3361 13.837ZM29.6345 12.3987C29.6795 12.378 29.7217 12.3433 29.7612 12.292L29.64 12.1187C29.609 12.1603 29.5739 12.1893 29.5344 12.2047C29.4925 12.2209 29.4491 12.233 29.4049 12.2407L29.3627 12.2482C29.326 12.2545 29.2867 12.2615 29.2444 12.2685C29.1765 12.281 29.1103 12.3015 29.0472 12.3295C28.9471 12.3725 28.867 12.4307 28.8064 12.5042C28.7458 12.5777 28.6979 12.6608 28.6654 12.7525C28.6326 12.8453 28.6104 12.9416 28.5993 13.0395C28.588 13.1395 28.5824 13.235 28.5824 13.3265C28.5824 13.4445 28.5978 13.5512 28.6288 13.6468C28.6599 13.7427 28.7034 13.823 28.7612 13.8882C28.8189 13.9548 28.888 14.0048 28.9697 14.0408C29.0514 14.0768 29.1429 14.0948 29.2457 14.0948C29.3401 14.0948 29.4275 14.0768 29.5063 14.0435C29.5823 14.0115 29.6512 13.9649 29.7091 13.9063C29.7654 13.8493 29.8105 13.7813 29.8415 13.7052C29.8738 13.6288 29.8894 13.547 29.8894 13.461C29.8894 13.3682 29.8753 13.2837 29.8485 13.2087C29.8239 13.1372 29.7846 13.0715 29.7331 13.016C29.6815 12.9614 29.6184 12.9187 29.5485 12.891C29.4714 12.8607 29.3891 12.8457 29.3063 12.8467C29.2527 12.8467 29.2007 12.8537 29.15 12.8675C29.1006 12.8813 29.0533 12.9014 29.009 12.9272C28.9661 12.9516 28.9268 12.9819 28.8922 13.0172C28.8584 13.052 28.8303 13.0908 28.8105 13.1352H28.8049C28.8092 13.0783 28.8162 13.0202 28.8288 12.9605C28.8415 12.9008 28.8598 12.8438 28.8839 12.7898C28.9078 12.7358 28.9388 12.6872 28.9767 12.6428C29.0175 12.5981 29.0674 12.5626 29.1232 12.5388C29.1845 12.5097 29.2494 12.4888 29.3162 12.4765L29.3603 12.4685C29.4044 12.4605 29.4464 12.4528 29.4865 12.4445C29.5401 12.4335 29.5893 12.4193 29.6345 12.3987ZM28.8514 13.5845C28.8296 13.5145 28.8192 13.4414 28.8204 13.3682C28.8299 13.3261 28.8471 13.2861 28.8711 13.2503C28.8951 13.2128 28.926 13.1797 28.9627 13.1503C29.0454 13.0858 29.1477 13.0511 29.2527 13.052C29.3838 13.052 29.4824 13.0922 29.5513 13.1713C29.6204 13.2517 29.6542 13.3515 29.6542 13.4722C29.6542 13.5318 29.6429 13.586 29.6233 13.6358C29.6042 13.685 29.5755 13.7298 29.5387 13.7677C29.5019 13.8056 29.4579 13.8357 29.4092 13.8563C29.3585 13.8785 29.3034 13.8897 29.2415 13.8897C29.1796 13.8897 29.1232 13.8772 29.0711 13.8522C29.0194 13.8277 28.9737 13.7922 28.9372 13.7482C28.8991 13.6991 28.87 13.6437 28.8514 13.5845ZM31.5963 12.8328H31.3737V14.0672H31.5963V12.8328ZM30.2104 12.8328H30.433V13.2032H30.6387C30.7357 13.2032 30.8146 13.2157 30.878 13.2392C30.9414 13.2628 30.9921 13.2947 31.0301 13.3335C31.0681 13.3723 31.0949 13.4182 31.1105 13.4693C31.1259 13.5207 31.1344 13.5733 31.1344 13.6288C31.1344 13.6843 31.1259 13.7372 31.1076 13.7898C31.0907 13.8425 31.0611 13.8882 31.0216 13.9298C30.9823 13.9715 30.9287 14.0048 30.8611 14.0298C30.7935 14.0547 30.7118 14.0685 30.6132 14.0685H30.209V12.8328H30.2104ZM30.433 13.4097V13.8618H30.595C30.7063 13.8618 30.7851 13.8425 30.8301 13.8035C30.8753 13.7647 30.8977 13.7093 30.8977 13.6358C30.8977 13.5608 30.8738 13.5042 30.8288 13.4652C30.7823 13.4263 30.7048 13.4068 30.5978 13.4068H30.433V13.4097Z" fill="white"/>
<path d="M33.0681 13.8892C33.0145 13.9572 32.9441 14.0086 32.8595 14.0432C32.7728 14.0784 32.68 14.0963 32.5864 14.0959C32.4933 14.0972 32.4007 14.0817 32.3131 14.0502C32.2344 14.0218 32.1625 13.9774 32.1019 13.9199C32.042 13.8623 31.995 13.7928 31.9638 13.7159C31.9303 13.6316 31.9136 13.5417 31.9146 13.4511C31.9146 13.3611 31.93 13.2777 31.9625 13.1987C31.9934 13.1196 32.0384 13.0517 32.0948 12.9947C32.1512 12.9366 32.2187 12.8922 32.2948 12.8576C32.3751 12.8224 32.4621 12.8048 32.5497 12.8062C32.6497 12.8062 32.7427 12.8187 32.8272 12.8436C32.9117 12.8686 32.9835 12.9102 33.0426 12.9686L32.9399 13.1419C32.8902 13.097 32.8316 13.063 32.768 13.0419C32.7075 13.0225 32.6443 13.0127 32.5807 13.0129C32.5245 13.0129 32.4709 13.0239 32.4187 13.0447C32.3675 13.0653 32.3206 13.0955 32.2808 13.1336C32.2403 13.173 32.2082 13.2202 32.1864 13.2722C32.1625 13.3262 32.1512 13.3859 32.1512 13.4524C32.1512 13.5204 32.1638 13.5814 32.1877 13.6341C32.2117 13.6882 32.2441 13.7341 32.285 13.7727C32.3258 13.8117 32.3737 13.8407 32.4286 13.8602C32.4836 13.8796 32.5414 13.8907 32.6033 13.8907C32.6793 13.8907 32.7469 13.8754 32.8075 13.8462C32.866 13.8181 32.9186 13.779 32.9625 13.7312L33.0681 13.8892ZM33.182 12.8326H34.3243V13.0517H33.8651V14.0667H33.6426V13.0517H33.1835V12.8326H33.182Z" fill="white"/>
<path fill-rule="evenodd" clip-rule="evenodd" d="M34.789 12.8331H34.5664V14.6164H34.789V14.0104C34.834 14.0396 34.8876 14.0604 34.9495 14.0743C35.0114 14.0881 35.0762 14.0949 35.1425 14.0949C35.2411 14.0949 35.3298 14.0769 35.4101 14.0438C35.4871 14.0109 35.557 13.9634 35.6156 13.9038C35.6734 13.8439 35.717 13.7746 35.748 13.6928C35.779 13.6111 35.7945 13.5236 35.7945 13.4308C35.7945 13.3391 35.7805 13.2546 35.7537 13.1783C35.7285 13.1058 35.6892 13.0389 35.6382 12.9814C35.5881 12.9254 35.526 12.8813 35.4564 12.8524C35.3804 12.8199 35.2983 12.8038 35.2156 12.8053C35.1284 12.8053 35.0467 12.8219 34.9693 12.8553C34.8918 12.8886 34.8312 12.9286 34.789 12.9786V12.8331ZM34.944 13.0619C35.0074 13.0286 35.0764 13.0119 35.151 13.0119C35.2158 13.0119 35.2735 13.0216 35.3257 13.0424C35.3764 13.0633 35.4186 13.0924 35.4539 13.1313C35.4891 13.1701 35.5159 13.2146 35.5328 13.2671C35.551 13.3198 35.5595 13.3768 35.5595 13.4391C35.5595 13.5058 35.5482 13.5653 35.5286 13.6208C35.5101 13.6734 35.4808 13.7216 35.4426 13.7623C35.4041 13.8025 35.3576 13.8341 35.306 13.8551C35.2485 13.8791 35.1866 13.8909 35.1242 13.8898C35.0638 13.8898 35.0074 13.8829 34.9539 13.8691C34.8952 13.8532 34.8396 13.8279 34.7892 13.7941V13.1824C34.8285 13.1354 34.8807 13.0953 34.944 13.0619ZM37.5015 12.8329H37.2789V14.0673H37.5015V12.8329ZM36.1142 12.8329H36.3368V13.2033H36.5423C36.6395 13.2033 36.7184 13.2158 36.7818 13.2393C36.8452 13.2629 36.8959 13.2948 36.9339 13.3336C36.9719 13.3724 36.9987 13.4183 37.0141 13.4694C37.0297 13.5208 37.038 13.5734 37.038 13.6289C37.038 13.6844 37.0297 13.7373 37.0114 13.7899C36.9945 13.8426 36.9649 13.8883 36.9254 13.9299C36.8861 13.9716 36.8325 14.0049 36.7649 14.0299C36.6973 14.0548 36.6156 14.0686 36.517 14.0686H36.1129V12.8329H36.1142ZM36.3383 13.4098V13.8619H36.5003C36.6114 13.8619 36.6904 13.8426 36.7354 13.8036C36.7805 13.7648 36.8031 13.7094 36.8031 13.6359C36.8031 13.5609 36.7791 13.5043 36.7341 13.4653C36.6876 13.4264 36.6101 13.4069 36.5031 13.4069H36.3383V13.4098Z" fill="white"/>
<path d="M38.5694 13.428L39.0453 14.0673H38.7722L38.4045 13.568L38.0313 14.0673H37.7722L38.2453 13.439L37.8003 12.833H38.0736L38.413 13.299L38.758 12.833H39.0172L38.5694 13.428ZM19.0184 15.5928H18.3354V16.6218H18.1128V15.3877H19.2408V16.6218H19.0184V15.5928ZM20.5041 15.6067H20.0648L20.0505 15.8147C20.0351 15.9908 20.014 16.1323 19.9844 16.2403C19.9548 16.3487 19.9181 16.4318 19.876 16.49C19.8338 16.5483 19.7844 16.5885 19.728 16.608C19.6698 16.629 19.6083 16.6394 19.5464 16.6385L19.5295 16.4248C19.5535 16.4262 19.5816 16.4207 19.6125 16.4068C19.6437 16.393 19.6746 16.3625 19.7041 16.3168C19.7337 16.2695 19.7605 16.203 19.7844 16.117C19.8084 16.0297 19.8239 15.916 19.8323 15.773L19.8549 15.3888H20.7267V16.6232H20.5041V15.6067Z" fill="white"/>
<path fill-rule="evenodd" clip-rule="evenodd" d="M21.3268 15.3904C21.2549 15.4097 21.1901 15.4374 21.1352 15.472L21.1944 15.6469C21.2451 15.6219 21.2959 15.601 21.3464 15.583C21.3971 15.565 21.4621 15.5567 21.5394 15.5567C21.6015 15.5567 21.6507 15.5664 21.6887 15.5857C21.7268 15.6039 21.7549 15.6315 21.7747 15.6649C21.7943 15.6982 21.807 15.7399 21.814 15.7882C21.821 15.8369 21.8239 15.8895 21.8239 15.9464C21.7783 15.9148 21.7264 15.8935 21.6718 15.884C21.6189 15.8736 21.5652 15.868 21.5113 15.8674C21.4451 15.8674 21.3831 15.877 21.324 15.8937C21.2647 15.9104 21.214 15.9354 21.1732 15.9687C21.1315 16.002 21.0978 16.0441 21.0746 16.092C21.0499 16.1445 21.0374 16.2019 21.0381 16.2599C21.0381 16.3804 21.0733 16.4749 21.1437 16.5414C21.214 16.6079 21.3071 16.6412 21.4226 16.6412C21.5268 16.6412 21.6098 16.6232 21.6733 16.587C21.7365 16.551 21.7872 16.5094 21.8239 16.4622V16.6217H22.0324V15.8645C22.0324 15.7037 21.9971 15.5789 21.9253 15.4915C21.8549 15.404 21.7295 15.3599 21.5521 15.3599C21.476 15.3599 21.4002 15.3703 21.3268 15.3904ZM21.7 16.39C21.6495 16.4262 21.5832 16.4429 21.5015 16.4429C21.4282 16.4429 21.3733 16.4249 21.334 16.39C21.2945 16.354 21.2748 16.3069 21.2748 16.2487C21.2748 16.214 21.2818 16.1849 21.2974 16.1585C21.3128 16.1322 21.334 16.1114 21.3579 16.0947C21.3819 16.078 21.4113 16.0655 21.4438 16.0572C21.476 16.0489 21.5091 16.0448 21.5424 16.0449C21.6522 16.0449 21.7466 16.0712 21.8241 16.1265V16.2832C21.7875 16.3239 21.7458 16.3599 21.7 16.39Z" fill="white"/>
<path d="M22.2505 15.3872H23.3927V15.6062H22.9335V16.6214H22.7111V15.6064H22.252V15.3872H22.2505Z" fill="white"/>
<path fill-rule="evenodd" clip-rule="evenodd" d="M24.4319 16.609C24.5164 16.5827 24.5882 16.5423 24.6501 16.487L24.5825 16.315C24.5417 16.3512 24.4868 16.3817 24.4205 16.4067C24.3544 16.4317 24.2797 16.444 24.1981 16.444C24.0755 16.444 23.9741 16.4122 23.8938 16.347C23.8134 16.2818 23.7699 16.1903 23.7601 16.0737H24.7234C24.7331 16.0308 24.7375 15.9822 24.7375 15.9253C24.7375 15.8408 24.7219 15.7645 24.6909 15.6952C24.6621 15.6279 24.6199 15.567 24.5669 15.5163C24.5134 15.4659 24.4502 15.4268 24.3811 15.4012C24.3088 15.3733 24.2319 15.3591 24.1544 15.3595C24.0501 15.3595 23.9586 15.3775 23.8784 15.4108C23.8026 15.4425 23.734 15.4893 23.6769 15.5482C23.6214 15.6068 23.5787 15.6762 23.5515 15.752C23.5218 15.8328 23.5071 15.9183 23.5078 16.0043C23.5078 16.1015 23.5247 16.1902 23.5557 16.2693C23.5868 16.3483 23.6332 16.4163 23.6909 16.4732C23.7487 16.53 23.8191 16.573 23.9023 16.6035C23.9913 16.635 24.0852 16.6505 24.1796 16.6493C24.2628 16.6493 24.3473 16.6353 24.4319 16.609ZM23.8672 15.6577C23.9361 15.5953 24.0277 15.5648 24.1432 15.5648C24.2531 15.5648 24.339 15.5953 24.4024 15.6522C24.4657 15.7105 24.4995 15.7908 24.5052 15.8935H23.7447C23.7554 15.8027 23.7989 15.7189 23.8672 15.6577ZM24.8459 15.3873H25.1276L25.557 15.9823L25.098 16.6215H24.8248L25.3063 15.9822L24.8459 15.3873ZM25.6119 15.3873H25.8345V16.6215H25.6119V15.3873ZM26.6302 16.6215L26.1401 15.9822L26.5979 15.3872H26.3217L25.8894 15.9822L26.3542 16.6215H26.6302ZM27.6471 16.609C27.7316 16.5827 27.8034 16.5423 27.8653 16.487L27.7977 16.315C27.7569 16.3512 27.702 16.3817 27.6359 16.4067C27.5696 16.4317 27.495 16.444 27.4133 16.444C27.2908 16.444 27.1893 16.4122 27.109 16.347C27.0288 16.2818 26.9852 16.1903 26.9753 16.0737H27.9386C27.9485 16.0308 27.9527 15.9822 27.9527 15.9253C27.9527 15.8408 27.9373 15.7645 27.9062 15.6952C27.8773 15.6279 27.8352 15.5671 27.7823 15.5163C27.7287 15.4659 27.6655 15.4268 27.5964 15.4012C27.5241 15.3732 27.4471 15.3591 27.3696 15.3595C27.2655 15.3595 27.174 15.3775 27.0936 15.4108C27.0179 15.4426 26.9494 15.4893 26.8923 15.5482C26.8367 15.6067 26.794 15.6761 26.7669 15.752C26.7372 15.8328 26.7224 15.9183 26.7232 16.0043C26.7232 16.1015 26.7401 16.1902 26.7711 16.2693C26.8021 16.3483 26.8486 16.4163 26.9063 16.4732C26.9641 16.53 27.0344 16.573 27.1176 16.6035C27.2066 16.635 27.3005 16.6505 27.395 16.6493C27.4806 16.6487 27.5656 16.6351 27.6471 16.609ZM27.0824 15.6577C27.1515 15.5953 27.2431 15.5648 27.3586 15.5648C27.467 15.5648 27.5542 15.5953 27.6176 15.6522C27.6811 15.7105 27.7149 15.7908 27.7204 15.8935H26.9599C26.9706 15.8027 27.0142 15.7189 27.0824 15.6577ZM28.8556 14.9727C28.7246 14.9727 28.6528 14.9005 28.6416 14.7563H28.4317C28.4317 14.8117 28.4416 14.8617 28.4598 14.9088C28.4782 14.956 28.505 14.9962 28.5401 15.0295C28.5753 15.0628 28.6205 15.0892 28.6725 15.1098C28.7246 15.1307 28.7852 15.1403 28.8541 15.1403C28.9175 15.1403 28.974 15.1307 29.0247 15.1098C29.0754 15.0905 29.1175 15.0628 29.1542 15.0295C29.1893 14.9962 29.2176 14.956 29.2372 14.9088C29.257 14.8617 29.2668 14.8117 29.2668 14.7563H29.0585C29.0486 14.9005 28.9795 14.9727 28.8556 14.9727ZM28.2541 15.3872V16.6215H28.4767L29.2006 15.702V16.6215H29.4232V15.3872H29.2006L28.4767 16.3067V15.3872H28.2541Z" fill="white"/>
</g>
<defs>
<clipPath id="clip0_114_7395">
<rect width="40" height="20" fill="white"/>
</clipPath>
</defs>
</svg>
