<svg width="16" height="16" viewBox="0 0 16 16" fill="none" xmlns="http://www.w3.org/2000/svg">
<path d="M4.04788 10.6189H11.9522V5.38125H4.04788V10.6189ZM2.71454 13.4689C2.29476 13.4689 1.93704 13.3211 1.64138 13.0254C1.34571 12.7298 1.19788 12.372 1.19788 11.9523V4.04792C1.19788 3.62814 1.34571 3.27042 1.64138 2.97475C1.93704 2.67908 2.29476 2.53125 2.71454 2.53125H13.2855C13.7053 2.53125 14.063 2.67908 14.3587 2.97475C14.6544 3.27042 14.8022 3.62814 14.8022 4.04792V11.9523C14.8022 12.372 14.6544 12.7298 14.3587 13.0254C14.063 13.3211 13.7053 13.4689 13.2855 13.4689H2.71454ZM2.71454 11.9523H13.2855V4.04792H2.71454V11.9523ZM5.23771 9.37725L6.70221 7.42225L7.65471 8.68675L8.95254 6.95625L10.7624 9.37725H5.23771Z" fill="#DE96F9"/>
</svg>
