<svg width="13" height="13" viewBox="0 0 13 13" fill="none" xmlns="http://www.w3.org/2000/svg">
<path d="M4.24717 12.259H1.51667C1.09689 12.259 0.739166 12.1112 0.4435 11.8155C0.147833 11.5199 0 11.1622 0 10.7423V6.1355C0 5.28628 0.161667 4.48911 0.485 3.744C0.808333 2.999 1.24606 2.35039 1.79817 1.79817C2.35039 1.24606 2.999 0.808333 3.744 0.485C4.48911 0.161666 5.28628 0 6.1355 0C6.98472 0 7.78189 0.161666 8.527 0.485C9.272 0.808333 9.92061 1.24606 10.4728 1.79817C11.0249 2.35039 11.4627 2.999 11.786 3.744C12.1093 4.48911 12.271 5.28628 12.271 6.1355V10.7423C12.271 11.1622 12.1232 11.5199 11.8275 11.8155C11.5318 12.1112 11.1741 12.259 10.7543 12.259H8.02383V6.67867H10.7543V6.1355C10.7543 4.84883 10.3062 3.75733 9.40983 2.861C8.51361 1.96478 7.42217 1.51667 6.1355 1.51667C4.84883 1.51667 3.75733 1.96478 2.861 2.861C1.96478 3.75733 1.51667 4.84883 1.51667 6.1355V6.67867H4.24717V12.259ZM2.7305 8.19533H1.51667V10.7423H2.7305V8.19533ZM9.5405 8.19533V10.7423H10.7543V8.19533H9.5405Z" fill="#DE96F9"/>
</svg>
