<svg width="16" height="16" viewBox="0 0 16 16" fill="none" xmlns="http://www.w3.org/2000/svg">
<path d="M8.00025 14.8021C7.72003 14.8021 7.45175 14.7494 7.19542 14.6441C6.93898 14.5388 6.71103 14.3877 6.51159 14.1909C6.19725 13.8766 5.92542 13.6708 5.69609 13.5734C5.46675 13.4761 5.12675 13.4274 4.67609 13.4274C4.09164 13.4274 3.59492 13.2229 3.18592 12.8139C2.77692 12.4049 2.57242 11.9082 2.57242 11.3238C2.57242 10.869 2.5237 10.5279 2.42625 10.3004C2.32881 10.0731 2.12303 9.80236 1.80892 9.48825C1.60948 9.28881 1.45775 9.06081 1.35375 8.80425C1.24975 8.5477 1.19775 8.27953 1.19775 7.99975C1.19775 7.71986 1.25042 7.45175 1.35575 7.19542C1.46109 6.93898 1.61214 6.71231 1.80892 6.51542C2.12325 6.2012 2.32909 5.92942 2.42642 5.70009C2.52375 5.47075 2.57242 5.12942 2.57242 4.67609C2.57242 4.09275 2.77692 3.59698 3.18592 3.18875C3.59492 2.78053 4.09164 2.57642 4.67609 2.57642C5.12675 2.57642 5.46675 2.52775 5.69609 2.43042C5.92542 2.33309 6.19725 2.12725 6.51159 1.81292C6.70836 1.61614 6.93536 1.46442 7.19259 1.35775C7.4497 1.25109 7.71853 1.19775 7.99909 1.19775C8.27964 1.19775 8.54809 1.25109 8.80442 1.35775C9.06086 1.46442 9.28753 1.61614 9.48442 1.81292C9.79864 2.12725 10.0704 2.33309 10.2998 2.43042C10.5291 2.52775 10.8704 2.57642 11.3238 2.57642C11.9071 2.57642 12.4029 2.78053 12.8111 3.18875C13.2193 3.59698 13.4234 4.09275 13.4234 4.67609C13.4234 5.12675 13.4721 5.46742 13.5694 5.69809C13.6668 5.92875 13.8726 6.2012 14.1869 6.51542C14.3837 6.71231 14.5354 6.93903 14.6421 7.19559C14.7488 7.45214 14.8021 7.72031 14.8021 8.00009C14.8021 8.27998 14.7494 8.54836 14.6439 8.80525C14.5385 9.06214 14.3861 9.28981 14.1869 9.48825C13.8729 9.80292 13.6671 10.0742 13.5696 10.3021C13.4721 10.5299 13.4234 10.8704 13.4234 11.3238C13.4234 11.9082 13.2193 12.4049 12.8111 12.8139C12.4029 13.2229 11.9071 13.4274 11.3238 13.4274C10.8691 13.4274 10.5281 13.4754 10.3008 13.5714C10.0734 13.6674 9.80259 13.8726 9.48825 14.1869C9.28992 14.3861 9.06237 14.5385 8.80559 14.6439C8.54881 14.7494 8.28036 14.8021 8.00025 14.8021ZM7.99942 13.2894C8.07798 13.2894 8.15364 13.2726 8.22642 13.2391C8.29909 13.2055 8.36053 13.1636 8.41075 13.1133C8.87964 12.6471 9.31936 12.3309 9.72992 12.1644C10.1406 11.998 10.6732 11.9148 11.3278 11.9148C11.4941 11.9148 11.6335 11.8585 11.7461 11.7461C11.8585 11.6335 11.9148 11.4941 11.9148 11.3278C11.9148 10.6643 11.9975 10.1295 12.1631 9.72342C12.3285 9.31731 12.6453 8.87975 13.1133 8.41075C13.2307 8.29342 13.2894 8.15648 13.2894 7.99992C13.2894 7.84336 13.2307 7.70642 13.1133 7.58909C12.6471 7.12286 12.3309 6.68381 12.1644 6.27192C11.998 5.86014 11.9148 5.3282 11.9148 4.67609C11.9148 4.50975 11.8585 4.37031 11.7461 4.25775C11.6335 4.14531 11.4941 4.08909 11.3278 4.08909C10.6674 4.08909 10.1327 4.00586 9.72359 3.83942C9.31459 3.67298 8.87698 3.35664 8.41075 2.89042C8.36053 2.8402 8.29975 2.79831 8.22842 2.76475C8.15698 2.7312 8.08081 2.71442 7.99992 2.71442C7.91903 2.71442 7.84236 2.73114 7.76992 2.76459C7.69759 2.79803 7.63731 2.8387 7.58909 2.88659C7.11753 3.35537 6.6762 3.67298 6.26509 3.83942C5.85398 4.00586 5.32298 4.08909 4.67209 4.08909C4.50575 4.08909 4.36631 4.14531 4.25375 4.25775C4.14131 4.37031 4.08509 4.50975 4.08509 4.67609C4.08509 5.33964 4.00186 5.87448 3.83542 6.28059C3.66898 6.6867 3.3527 7.12286 2.88659 7.58909C2.76914 7.70642 2.71042 7.84336 2.71042 7.99992C2.71042 8.15648 2.76914 8.29342 2.88659 8.41075C3.3527 8.87698 3.66898 9.31636 3.83542 9.72892C4.00186 10.1416 4.08509 10.6745 4.08509 11.3278C4.08509 11.4941 4.14131 11.6335 4.25375 11.7461C4.36631 11.8585 4.50575 11.9148 4.67209 11.9148C5.33564 11.9148 5.87048 11.998 6.27659 12.1644C6.6827 12.3309 7.11886 12.6471 7.58509 13.1133C7.63531 13.1636 7.69725 13.2055 7.77092 13.2391C7.84459 13.2726 7.92075 13.2894 7.99942 13.2894ZM9.69042 10.7423C9.98264 10.7423 10.231 10.6396 10.4356 10.4343C10.64 10.2288 10.7423 9.97942 10.7423 9.68609C10.7423 9.39264 10.6399 9.14336 10.4351 8.93825C10.2302 8.73325 9.98148 8.63075 9.68892 8.63075C9.39625 8.63075 9.14736 8.73342 8.94225 8.93875C8.73725 9.1442 8.63475 9.39359 8.63475 9.68692C8.63475 9.98036 8.73736 10.2296 8.94259 10.4348C9.14792 10.6398 9.3972 10.7423 9.69042 10.7423ZM6.27992 10.7249L10.7289 6.27992L9.71992 5.27092L5.27492 9.71992L6.27992 10.7249ZM6.31375 7.36509C6.6072 7.36509 6.85648 7.26248 7.06159 7.05725C7.26659 6.85192 7.36909 6.60264 7.36909 6.30942C7.36909 6.0172 7.26642 5.76881 7.06109 5.56425C6.85564 5.35981 6.60625 5.25759 6.31292 5.25759C6.01948 5.25759 5.7702 5.35998 5.56509 5.56475C5.36009 5.76964 5.25759 6.01836 5.25759 6.31092C5.25759 6.60359 5.36025 6.85248 5.56559 7.05759C5.77103 7.26259 6.02042 7.36509 6.31375 7.36509Z" fill="#AA89F8" fill-opacity="0.5"/>
</svg>
