<svg width="16" height="16" viewBox="0 0 16 16" fill="none" xmlns="http://www.w3.org/2000/svg">
<path d="M4.6905 11.3093H9.35717V9.97592H4.6905V11.3093ZM4.6905 8.66642H11.3095V7.33309H4.6905V8.66642ZM4.6905 6.02359H11.3095V4.69026H4.6905V6.02359ZM3.38117 14.1353C2.96139 14.1353 2.60367 13.9874 2.308 13.6918C2.01234 13.3961 1.8645 13.0384 1.8645 12.6186V3.38092C1.8645 2.96115 2.01234 2.60342 2.308 2.30776C2.60367 2.01209 2.96139 1.86426 3.38117 1.86426H12.6188C13.0386 1.86426 13.3963 2.01209 13.692 2.30776C13.9877 2.60342 14.1355 2.96115 14.1355 3.38092V12.6186C14.1355 13.0384 13.9877 13.3961 13.692 13.6918C13.3963 13.9874 13.0386 14.1353 12.6188 14.1353H3.38117ZM3.38117 12.6186H12.6188V3.38092H3.38117V12.6186Z" fill="#DE96F9"/>
</svg>
