<svg width="16" height="16" viewBox="0 0 16 16" fill="none" xmlns="http://www.w3.org/2000/svg">
<path d="M2.71454 13.4689C2.29476 13.4689 1.93704 13.3211 1.64138 13.0254C1.34571 12.7298 1.19788 12.372 1.19788 11.9523V4.04792C1.19788 3.62814 1.34571 3.27042 1.64138 2.97475C1.93704 2.67908 2.29476 2.53125 2.71454 2.53125H10.6189C11.0387 2.53125 11.3964 2.67908 11.692 2.97475C11.9877 3.27042 12.1355 3.62814 12.1355 4.04792V7.00008L14.8022 4.33342V11.6668L12.1355 9.00008V11.9523C12.1355 12.372 11.9877 12.7298 11.692 13.0254C11.3964 13.3211 11.0387 13.4689 10.6189 13.4689H2.71454ZM2.71454 11.9523H10.6189V4.04792H2.71454V11.9523Z" fill="#DE96F9"/>
</svg>
