<svg width="24" height="24" viewBox="0 0 24 24" fill="none" xmlns="http://www.w3.org/2000/svg">
<g clip-path="url(#clip0_114_2753)">
<rect width="24" height="24" rx="12" fill="#4C75A3"/>
<path fill-rule="evenodd" clip-rule="evenodd" d="M10.8283 16.9623H11.7847C11.7847 16.9623 12.0735 16.9309 12.2212 16.7742C12.3569 16.6302 12.3525 16.36 12.3525 16.36C12.3525 16.36 12.3338 15.0948 12.9293 14.9085C13.5166 14.7248 14.2705 16.1313 15.0695 16.6721C15.6737 17.0812 16.1329 16.9917 16.1329 16.9917L18.2697 16.9623C18.2697 16.9623 19.3874 16.8943 18.8574 16.0278C18.814 15.957 18.5486 15.3868 17.2686 14.2153C15.9287 12.9892 16.1083 13.1876 17.7222 11.0667C18.7051 9.77504 19.0979 8.98653 18.9752 8.64883C18.8582 8.32708 18.1352 8.41207 18.1352 8.41207L15.7295 8.42674C15.7295 8.42674 15.551 8.4028 15.4188 8.48079C15.2895 8.55706 15.2065 8.73527 15.2065 8.73527C15.2065 8.73527 14.8256 9.7347 14.318 10.5848C13.2467 12.3784 12.8183 12.4733 12.6432 12.3617C12.2357 12.1022 12.3376 11.3191 12.3376 10.7626C12.3376 9.02442 12.605 8.29969 11.8168 8.11209C11.5554 8.04988 11.3627 8.00871 10.6939 8.00199C9.83544 7.99338 9.10903 8.0046 8.69763 8.20331C8.42392 8.33547 8.21275 8.62989 8.34144 8.64684C8.50049 8.66772 8.86051 8.74266 9.05139 8.99876C9.298 9.32957 9.28938 10.0722 9.28938 10.0722C9.28938 10.0722 9.43108 12.1183 8.95854 12.3724C8.6343 12.5467 8.18943 12.1909 7.23433 10.5636C6.74506 9.73015 6.37552 8.80871 6.37552 8.80871C6.37552 8.80871 6.30436 8.63656 6.17726 8.5444C6.02311 8.43274 5.80772 8.39735 5.80772 8.39735L3.5215 8.41207C3.5215 8.41207 3.17838 8.42152 3.05229 8.56867C2.94011 8.69966 3.04333 8.97026 3.04333 8.97026C3.04333 8.97026 4.83307 13.099 6.85978 15.1796C8.7183 17.0875 10.8283 16.9623 10.8283 16.9623Z" fill="white"/>
</g>
<defs>
<clipPath id="clip0_114_2753">
<rect width="24" height="24" fill="white"/>
</clipPath>
</defs>
</svg>
